<mxfile host="app.diagrams.net" agent="Mozilla/5.0 (Macintosh; Intel Mac OS X 10_15_7) AppleWebKit/605.1.15 (KHTML, like Gecko) Version/17.5 Safari/605.1.15" version="24.8.6">
  <diagram name="第 1 页" id="v8-47LHrm3D1--QRi5Tr">
    <mxGraphModel dx="1218" dy="739" grid="1" gridSize="10" guides="1" tooltips="1" connect="1" arrows="1" fold="1" page="1" pageScale="1" pageWidth="827" pageHeight="1169" math="0" shadow="0">
      <root>
        <mxCell id="0" />
        <mxCell id="1" parent="0" />
        <mxCell id="faIEImijbQ1jhMfE26tC-1" value="RecordControlModel" style="swimlane;fontStyle=1;align=center;verticalAlign=top;childLayout=stackLayout;horizontal=1;startSize=26;horizontalStack=0;resizeParent=1;resizeParentMax=0;resizeLast=0;collapsible=1;marginBottom=0;whiteSpace=wrap;html=1;" vertex="1" parent="1">
          <mxGeometry x="330" y="310" width="160" height="86" as="geometry" />
        </mxCell>
        <mxCell id="faIEImijbQ1jhMfE26tC-2" value="+ field: type" style="text;strokeColor=none;fillColor=none;align=left;verticalAlign=top;spacingLeft=4;spacingRight=4;overflow=hidden;rotatable=0;points=[[0,0.5],[1,0.5]];portConstraint=eastwest;whiteSpace=wrap;html=1;" vertex="1" parent="faIEImijbQ1jhMfE26tC-1">
          <mxGeometry y="26" width="160" height="26" as="geometry" />
        </mxCell>
        <mxCell id="faIEImijbQ1jhMfE26tC-3" value="" style="line;strokeWidth=1;fillColor=none;align=left;verticalAlign=middle;spacingTop=-1;spacingLeft=3;spacingRight=3;rotatable=0;labelPosition=right;points=[];portConstraint=eastwest;strokeColor=inherit;" vertex="1" parent="faIEImijbQ1jhMfE26tC-1">
          <mxGeometry y="52" width="160" height="8" as="geometry" />
        </mxCell>
        <mxCell id="faIEImijbQ1jhMfE26tC-4" value="+ method(type): type" style="text;strokeColor=none;fillColor=none;align=left;verticalAlign=top;spacingLeft=4;spacingRight=4;overflow=hidden;rotatable=0;points=[[0,0.5],[1,0.5]];portConstraint=eastwest;whiteSpace=wrap;html=1;" vertex="1" parent="faIEImijbQ1jhMfE26tC-1">
          <mxGeometry y="60" width="160" height="26" as="geometry" />
        </mxCell>
        <mxCell id="faIEImijbQ1jhMfE26tC-7" value="RecordApi" style="rounded=1;whiteSpace=wrap;html=1;arcSize=40;fontColor=#000000;fillColor=#ffffc0;strokeColor=#ff0000;" vertex="1" parent="1">
          <mxGeometry x="100" y="280" width="120" height="40" as="geometry" />
        </mxCell>
        <mxCell id="faIEImijbQ1jhMfE26tC-8" value="" style="edgeStyle=orthogonalEdgeStyle;html=1;verticalAlign=bottom;endArrow=open;endSize=8;strokeColor=#ff0000;rounded=0;" edge="1" source="faIEImijbQ1jhMfE26tC-7" parent="1">
          <mxGeometry relative="1" as="geometry">
            <mxPoint x="160" y="380" as="targetPoint" />
          </mxGeometry>
        </mxCell>
        <mxCell id="faIEImijbQ1jhMfE26tC-9" value="&lt;span style=&quot;font-weight: 700;&quot;&gt;RecordControlModel&lt;/span&gt;" style="html=1;whiteSpace=wrap;" vertex="1" parent="1">
          <mxGeometry x="480" y="550" width="145" height="50" as="geometry" />
        </mxCell>
        <mxCell id="faIEImijbQ1jhMfE26tC-10" value="&lt;span style=&quot;font-weight: 700;&quot;&gt;RecordControlModel&lt;/span&gt;" style="rounded=1;whiteSpace=wrap;html=1;arcSize=40;fontColor=#000000;fillColor=#ffffc0;strokeColor=#ff0000;" vertex="1" parent="1">
          <mxGeometry x="90" y="380" width="140" height="50" as="geometry" />
        </mxCell>
        <mxCell id="faIEImijbQ1jhMfE26tC-11" value="" style="edgeStyle=orthogonalEdgeStyle;html=1;verticalAlign=bottom;endArrow=open;endSize=8;strokeColor=#ff0000;rounded=0;" edge="1" source="faIEImijbQ1jhMfE26tC-10" parent="1">
          <mxGeometry relative="1" as="geometry">
            <mxPoint x="160" y="510" as="targetPoint" />
            <Array as="points">
              <mxPoint x="160" y="490" />
            </Array>
          </mxGeometry>
        </mxCell>
        <mxCell id="faIEImijbQ1jhMfE26tC-12" value="insertRecordList()" style="edgeLabel;html=1;align=center;verticalAlign=middle;resizable=0;points=[];" vertex="1" connectable="0" parent="faIEImijbQ1jhMfE26tC-11">
          <mxGeometry x="-0.325" relative="1" as="geometry">
            <mxPoint as="offset" />
          </mxGeometry>
        </mxCell>
      </root>
    </mxGraphModel>
  </diagram>
</mxfile>
